# xmcd CD database file
#
# Track frame offsets:
#	183
#	16478
#	33975
#	48935
#	65603
#	82183
#	100400
#	117728
#	132998
#	147285
#	164398
#	177835
#	194805
#	211168
#	227568
#	245398
#	262833
#
# Disc length: 3750 seconds
#
# Revision: 2
# Processed by: cddbd v1.5.2PL0 Copyright (c) Steve Scherf et al.
# Submitted via: CDex 1.70beta2
#
DISCID=f60ea411
DTITLE=유심초 - 사랑이여
DYEAR=1900
DGENRE=Folk
TTITLE0=사랑이여
TTITLE1=사랑하는 그대에게
TTITLE2=어디서 무엇이되어 다시만나랴
TTITLE3=나는 홀로 있어도
TTITLE4=내마음은 제비처럼
TTITLE5=추억속에 머물고
TTITLE6=너와 나의 석별
TTITLE7=나는 바람 그대는 해바라기
TTITLE8=남겨진 그말들
TTITLE9=머물고간 바람처럼
TTITLE10=카페에서
TTITLE11=사랑이여 (경음악)
TTITLE12=사랑한다 말해주세요
TTITLE13=우리는 타인
TTITLE14=눈물을 흘리지말어
TTITLE15=호수에 비친 달
TTITLE16=날 잊지말아요
EXTD=
EXTT0=
EXTT1=
EXTT2=
EXTT3=
EXTT4=
EXTT5=
EXTT6=
EXTT7=
EXTT8=
EXTT9=
EXTT10=
EXTT11=
EXTT12=
EXTT13=
EXTT14=
EXTT15=
EXTT16=
PLAYORDER=
